<?xml version="1.0" encoding="utf-8"?>
<!-- Generator: Adobe Illustrator 19.0.0, SVG Export Plug-In . SVG Version: 6.00 Build 0)  -->
<svg version="1.1" xmlns="http://www.w3.org/2000/svg" xmlns:xlink="http://www.w3.org/1999/xlink" x="0px" y="0px"
	 viewBox="0 0 750 500" style="enable-background:new 0 0 750 500;" xml:space="preserve">
<style type="text/css">
	.st0{fill:#E6E6E6;}
	.st1{fill:#F0F0F0;}
	.st2{fill:#FFFFFF;}
	.st3{fill:#E0E0E0;}
	.st4{fill:#EBEBEB;}
	.st5{fill:none;stroke:#E0E0E0;stroke-width:0.75;stroke-miterlimit:10;}
	.st6{fill:none;stroke:#E0E0E0;stroke-width:0.75;stroke-linecap:round;stroke-linejoin:round;stroke-miterlimit:10;}
	.st7{fill:none;stroke:#E0E0E0;stroke-width:0.5;stroke-linecap:round;stroke-linejoin:round;stroke-miterlimit:10;}
	.st8{display:none;}
	.st9{display:inline;}
	.st10{fill:#407BFF;}
	.st11{opacity:0.9;fill:#FFFFFF;}
	.st12{fill:#F5F5F5;}
	.st13{opacity:0.8;fill:#FFFFFF;}
	.st14{opacity:0.3;fill:#FFFFFF;}
	.st15{fill:#263238;}
	.st16{opacity:0.2;enable-background:new    ;}
	.st17{opacity:0.7;enable-background:new    ;}
	.st18{opacity:0.4;fill:#FFFFFF;}
	.st19{opacity:0.3;}
	.st20{opacity:0.7;fill:#FFFFFF;enable-background:new    ;}
	.st21{opacity:0.5;}
	.st22{fill:none;stroke:#263238;stroke-miterlimit:10;}
	.st23{fill:#E9B376;}
	.st24{opacity:0.3;fill:none;stroke:#000000;stroke-width:0.25;stroke-linecap:round;stroke-linejoin:round;stroke-miterlimit:10;}
	.st25{opacity:0.2;}
	.st26{opacity:0.6;fill:#FFFFFF;enable-background:new    ;}
	.st27{opacity:0.4;enable-background:new    ;}
	.st28{fill:#D58745;}
	.st29{opacity:0.2;fill:none;stroke:#000000;stroke-width:0.5;stroke-linecap:round;stroke-linejoin:round;stroke-miterlimit:10;}
	.st30{fill:#DE5753;}
	.st31{fill:#263238;enable-background:new    ;}
	.st32{opacity:0.7;fill:#FFFFFF;}
	.st33{opacity:0.5;fill:#FFFFFF;enable-background:new    ;}
	.st34{opacity:0.3;fill:#FFFFFF;enable-background:new    ;}
	.st35{opacity:0.3;enable-background:new    ;}
	.st36{opacity:0.2;fill:#FFFFFF;}
	.st37{fill:none;stroke:#263238;stroke-width:0.75;stroke-miterlimit:10;}
	.st38{fill:none;stroke:#263238;stroke-width:0.75;stroke-linecap:round;stroke-linejoin:round;stroke-miterlimit:10;}
	.st39{fill:none;stroke:#407BFF;stroke-width:0.5;stroke-linecap:round;stroke-linejoin:round;stroke-miterlimit:10;}
	.st40{fill:#B97964;}
	.st41{opacity:0.4;}
	.st42{fill:#A24E3F;}
	.st43{opacity:0.3;fill:none;stroke:#000000;stroke-width:0.5;stroke-linecap:round;stroke-linejoin:round;stroke-miterlimit:10;}
</style>
<g id="Background_complete">
	<g>
		<rect x="130.4" y="73.3" class="st0" width="73.5" height="138.6"/>
		<rect x="114" y="73.3" class="st1" width="86.3" height="138.6"/>
		<rect x="127.1" y="85.6" class="st2" width="60.1" height="114"/>
		<rect x="149.7" y="124.1" class="st3" width="19.4" height="29.7"/>
	</g>
	<g>
		<g>
			<path class="st0" d="M80.5,317.6c3-3.6,8.7-6.1,15-7.3c-0.5,1.8-0.1,3.5,0.9,3.9c1.2,0.5,2.8-0.8,3.5-2.8
				c0.2-0.6,0.3-1.1,0.4-1.7c6.3-0.5,12.7,0.2,16.9,2.2c0,0-4.1,3.7-8.8,13.5c-0.1,0-0.3,0-0.4,0c-3,0-5.5,1.5-5.5,3.3
				c0,1.3,1.3,2.4,3.2,2.9c-0.2,0.6-0.5,1.3-0.7,1.9c-4.5,12.1-16.4,3.3-16.3-4.9C88.8,328.6,73.9,325.8,80.5,317.6z"/>
			<g>
				<path class="st0" d="M65.9,302c-3.6-3.9-10.4-6.3-17.6-7.2c0.7,2,0.4,3.9-0.8,4.5c-1.3,0.6-3.2-0.7-4.3-3
					c-0.3-0.6-0.5-1.3-0.6-1.9c-7.3-0.1-14.4,1.2-19.1,3.8c0,0,5,3.9,11.1,14.8c0.2,0,0.3,0,0.5,0c3.5-0.2,6.4,1.3,6.5,3.3
					c0.1,1.5-1.3,2.8-3.5,3.5c0.3,0.7,0.7,1.4,1,2.1c6,13.4,18.9,2.6,18.2-6.8C57.3,315.2,74,310.8,65.9,302z"/>
				<g>
					<g>
						<g>
							<path class="st4" d="M57,299c1.5-7.6,8-15.4,16.3-21.9c0.6,3,2.4,5.1,4.3,4.9c2.1-0.2,3.4-3.3,3-6.8c-0.1-1-0.4-1.9-0.7-2.7
								c8.8-5.5,18.6-9.3,26.3-9.5c0,0-3.2,8.6-2.6,26.4c-0.2,0.1-0.4,0.2-0.6,0.3c-4.4,2.3-6.8,6.3-5.5,8.9c1,1.9,3.8,2.5,6.9,1.8
								c0.1,1.1,0.2,2.2,0.4,3.4c2.7,21-21.3,17.3-27.4,5.2C77.4,308.9,53.5,316,57,299z"/>
						</g>
					</g>
				</g>
				<path class="st5" d="M74.3,346.9c-4-22.2,2-46,16-63.7"/>
				<path class="st6" d="M44.6,304.3c16.8,8.7,26.1,27.4,28.5,34.7c0,0,20.5-14.9,30.5-21.3"/>
				<g>
					<polygon class="st3" points="98.9,354 48.4,354 48.5,344.8 98.8,344.8 					"/>
					<polygon class="st3" points="52.1,351 60,383.8 89,383.8 96,351 					"/>
				</g>
			</g>
		</g>
		<path class="st7" d="M51.3,342.9c1.5,0,3,0,4.5,0"/>
		<path class="st7" d="M57.8,342.9c4.1,0,8.2,0,12.3,0"/>
	</g>
	<g>
		<g>
			<path class="st0" d="M466.1,324c2.7-3.3,7.8-5.5,13.5-6.5c-0.4,1.6-0.1,3.1,0.8,3.5c1.1,0.4,2.5-0.7,3.2-2.6
				c0.2-0.5,0.3-1,0.4-1.5c5.7-0.5,11.4,0.2,15.2,2c0,0-3.7,3.4-8,12.2c-0.1,0-0.3,0-0.4,0c-2.7,0-4.9,1.3-4.9,3
				c0,1.2,1.2,2.2,2.9,2.6c-0.2,0.6-0.4,1.1-0.7,1.7c-4,10.9-14.8,3-14.7-4.4C473.5,334,460.1,331.4,466.1,324z"/>
			<g>
				<path class="st0" d="M452.9,309.9c-3.3-3.6-9.3-5.7-15.9-6.5c0.6,1.8,0.4,3.5-0.7,4c-1.2,0.5-2.9-0.7-3.8-2.7
					c-0.3-0.6-0.4-1.1-0.5-1.7c-6.6-0.1-13,1.1-17.2,3.4c0,0,4.5,3.6,10,13.3c0.1,0,0.3,0,0.4,0c3.1-0.2,5.7,1.2,5.8,3
					c0.1,1.3-1.2,2.6-3.1,3.2c0.3,0.6,0.6,1.3,0.9,1.9c5.4,12.1,17.1,2.3,16.4-6.2C445.1,321.9,460.2,317.9,452.9,309.9z"/>
				<g>
					<g>
						<g>
							<path class="st4" d="M444.9,307.3c1.4-6.8,7.3-13.9,14.7-19.8c0.6,2.7,2.2,4.6,3.9,4.4c1.9-0.2,3.1-3,2.7-6.2
								c-0.1-0.9-0.3-1.7-0.6-2.5c8-5,16.8-8.4,23.8-8.6c0,0-2.9,7.7-2.3,23.8c-0.2,0.1-0.4,0.2-0.6,0.3c-4,2.1-6.2,5.7-4.9,8
								c0.9,1.7,3.4,2.2,6.2,1.6c0.1,1,0.2,2,0.4,3c2.4,18.9-19.2,15.6-24.8,4.7C463.2,316.2,441.7,322.6,444.9,307.3z"/>
						</g>
					</g>
				</g>
				<path class="st5" d="M460.5,350.5c-3.6-20,1.8-41.5,14.4-57.5"/>
				<path class="st6" d="M433.7,312c15.1,7.9,23.5,24.8,25.8,31.3c0,0,18.5-13.5,27.5-19.2"/>
				<g>
					<polygon class="st3" points="482.7,356.9 437.1,356.9 437.2,348.6 482.6,348.6 					"/>
					<polygon class="st3" points="440.4,354.2 447.6,383.8 473.8,383.8 480.1,354.2 					"/>
				</g>
			</g>
		</g>
		<path class="st7" d="M439.7,346.9c1.4,0,2.7,0,4.1,0"/>
		<path class="st7" d="M445.6,346.9c3.7,0,7.4,0,11.1,0"/>
	</g>
	<g>
		<g>
			<path class="st0" d="M686.3,321.9c2.8-3.4,8.1-5.7,14-6.8c-0.5,1.7-0.1,3.2,0.9,3.6c1.1,0.4,2.6-0.8,3.3-2.7
				c0.2-0.5,0.3-1.1,0.4-1.6c5.9-0.5,11.8,0.2,15.8,2.1c0,0-3.9,3.5-8.2,12.6c-0.1,0-0.3,0-0.4,0c-2.8,0-5.1,1.4-5.1,3.1
				c0,1.2,1.3,2.2,3,2.7c-0.2,0.6-0.5,1.2-0.7,1.8c-4.2,11.3-15.3,3.1-15.2-4.6C694,332.3,680.1,329.6,686.3,321.9z"/>
			<g>
				<path class="st0" d="M672.6,307.4c-3.4-3.7-9.7-5.9-16.4-6.7c0.6,1.9,0.4,3.7-0.7,4.2c-1.2,0.6-3-0.7-4-2.8
					c-0.3-0.6-0.4-1.2-0.5-1.8c-6.8-0.1-13.5,1.1-17.8,3.6c0,0,4.7,3.7,10.3,13.8c0.2,0,0.3,0,0.5,0c3.2-0.2,5.9,1.2,6,3.1
					c0.1,1.4-1.3,2.6-3.2,3.3c0.3,0.7,0.6,1.3,0.9,2c5.6,12.6,17.7,2.4,17-6.4C664.6,319.7,680.3,315.6,672.6,307.4z"/>
				<g>
					<g>
						<g>
							<path class="st4" d="M664.4,304.6c1.4-7.1,7.5-14.4,15.2-20.5c0.6,2.8,2.3,4.8,4,4.6c1.9-0.2,3.2-3.1,2.8-6.4
								c-0.1-0.9-0.3-1.8-0.7-2.5c8.3-5.2,17.4-8.7,24.6-8.9c0,0-3,8-2.4,24.7c-0.2,0.1-0.4,0.2-0.6,0.3c-4.1,2.2-6.4,5.9-5.1,8.3
								c0.9,1.8,3.5,2.3,6.4,1.6c0.1,1,0.2,2.1,0.4,3.1c2.5,19.6-19.9,16.1-25.6,4.8C683.4,313.8,661.1,320.4,664.4,304.6z"/>
						</g>
					</g>
				</g>
				<path class="st5" d="M680.5,349.4c-3.7-20.7,1.8-43,14.9-59.5"/>
				<path class="st6" d="M652.8,309.5c15.7,8.1,24.3,25.6,26.7,32.4c0,0,19.2-13.9,28.4-19.9"/>
				<g>
					<polygon class="st3" points="703.5,356 656.4,356 656.4,347.3 703.5,347.3 					"/>
					<polygon class="st3" points="659.8,353.2 667.2,383.8 694.3,383.8 700.8,353.2 					"/>
				</g>
			</g>
		</g>
		<path class="st7" d="M659,345.6c1.4,0,2.8,0,4.2,0"/>
		<path class="st7" d="M665.1,345.6c3.8,0,7.6,0,11.5,0"/>
	</g>
	<g>
		<g>
			<g>
				<g>
					<g>
						<g>
							<path class="st3" d="M673.7,322.6H493c-3.2,0-5.9-2.6-5.9-5.9V53.5c0-3.2,2.6-5.9,5.9-5.9h180.7c3.2,0,5.9,2.6,5.9,5.9v263.3
								C679.6,320,677,322.6,673.7,322.6z M493,47.9c-3.1,0-5.6,2.5-5.6,5.6v263.3c0,3.1,2.5,5.6,5.6,5.6h180.7
								c3.1,0,5.6-2.5,5.6-5.6V53.5c0-3.1-2.5-5.6-5.6-5.6H493z"/>
						</g>
					</g>
					<g>
						<g>
							<path class="st3" d="M465.3,322.6H284.6c-3.2,0-5.9-2.6-5.9-5.9V53.5c0-3.2,2.6-5.9,5.9-5.9h180.7c3.2,0,5.9,2.6,5.9,5.9
								v263.3C471.2,320,468.5,322.6,465.3,322.6z M284.6,47.9c-3.1,0-5.6,2.5-5.6,5.6v263.3c0,3.1,2.5,5.6,5.6,5.6h180.7
								c3.1,0,5.6-2.5,5.6-5.6V53.5c0-3.1-2.5-5.6-5.6-5.6H284.6z"/>
						</g>
					</g>
				</g>
				<g>
					<g>
						<g>
							<path class="st3" d="M257,322.6H76.3c-3.2,0-5.9-2.6-5.9-5.9V53.5c0-3.2,2.6-5.9,5.9-5.9H257c3.2,0,5.9,2.6,5.9,5.9v263.3
								C262.9,320,260.2,322.6,257,322.6z M76.3,47.9c-3.1,0-5.6,2.5-5.6,5.6v263.3c0,3.1,2.5,5.6,5.6,5.6H257
								c3.1,0,5.6-2.5,5.6-5.6V53.5c0-3.1-2.5-5.6-5.6-5.6H76.3z"/>
						</g>
					</g>
				</g>
			</g>
			<g>
				<g>
					<rect y="383.7" class="st3" width="750" height="0.1"/>
				</g>
			</g>
		</g>
		<g>
			<rect x="653.6" y="413.1" class="st4" width="55.7" height="0.4"/>
			<rect x="495" y="417.6" class="st4" width="14.6" height="0.4"/>
			<rect x="40.6" y="400.3" class="st4" width="72.7" height="0.4"/>
			<rect x="128.3" y="400.3" class="st4" width="10.7" height="0.4"/>
			<rect x="173.6" y="407.4" class="st4" width="157.6" height="0.4"/>
		</g>
	</g>
</g>
<g id="Background_simple" class="st8">
	<g class="st9">
		<path class="st10" d="M111.5,55.9c-10.2,2.8-20,8.9-28.6,18.4c-10.2,11.2-20.7,28.7-17.6,51.5c5.7,42.1,33.1,42.9,27.6,71.3
			c-6.2,32.1-2,69.8,25.7,80.2c52.8,19.9,116.5-96.5,98.6-160.4C206.1,77,165.5,40.7,111.5,55.9z"/>
		<path class="st11" d="M111.5,55.9c-10.2,2.8-20,8.9-28.6,18.4c-10.2,11.2-20.7,28.7-17.6,51.5c5.7,42.1,33.1,42.9,27.6,71.3
			c-6.2,32.1-2,69.8,25.7,80.2c52.8,19.9,116.5-96.5,98.6-160.4C206.1,77,165.5,40.7,111.5,55.9z"/>
	</g>
</g>
<g id="Shadow">
	<g>
		<g>
			<ellipse class="st12" cx="335.9" cy="453.5" rx="247.9" ry="6.1"/>
		</g>
	</g>
</g>
<g id="Window">
	<g>
		<rect x="521.9" y="69.2" class="st10" width="131.5" height="188.6"/>
		<rect x="521.9" y="69.2" class="st13" width="131.5" height="188.6"/>
		<path class="st13" d="M564.8,69.2c-23.5,14.8-42.5,26.7-42.5,26.7v38.5l104.8-65.2H564.8z"/>
		<path class="st13" d="M653.4,69.2h-9.4c-30,20.1-121.8,77.5-121.8,77.5v16L653.4,81V69.2z"/>
	</g>
	<g>
		<rect x="311.8" y="68.4" class="st10" width="131.5" height="188.6"/>
		<rect x="311.8" y="68.4" class="st13" width="131.5" height="188.6"/>
		<path class="st13" d="M443.4,68.4c0,2.3-131.2,84.4-131.2,84.4v38.5l131.2-81.6V68.4z"/>
		<path class="st13" d="M443.4,122.4c0,2.3-131.2,84.4-131.2,84.4v16l131.2-81.6V122.4z"/>
	</g>
</g>
<g id="Cleaning_Trolley">
	<g>
		<g>
			<g>
				<polygon class="st10" points="187.6,237.8 184.5,221.8 215.7,221.8 218.2,227.2 218.2,221.8 223.4,221.8 224.1,228.7 
					226.1,221.8 235.5,221.8 231.4,237.3 				"/>
				<polygon class="st14" points="187.6,237.8 184.5,221.8 215.7,221.8 218.2,227.2 218.2,221.8 223.4,221.8 224.1,228.7 
					226.1,221.8 235.5,221.8 231.4,237.3 				"/>
				<g>
					<rect x="205.2" y="242.3" class="st15" width="4.9" height="63.7"/>
					<rect x="186.8" y="237.3" class="st15" width="46.7" height="4.9"/>
				</g>
				<rect x="205.2" y="242.3" class="st16" width="4.9" height="3"/>
			</g>
			<g>
				<g>
					<path class="st15" d="M190.3,257.2c-4.7-0.1-8.2-4.5-9.6-9c-1.4-4.5-1.4-9.3-2.9-13.7c-1.8-5.7-6.2-10.7-11.9-12.6
						c-5.7-1.8-12.6,0.1-16,5.1c-3.4,5-2.2,12.7,2.9,15.9l2.4,8.1c6.1,10.4,19.9,15.5,31.3,11.5c-1.1-1.4-2.2-2.8-3.3-4.1
						C185.6,259.2,188.4,258.7,190.3,257.2z"/>
				</g>
				<g class="st17">
					<path class="st2" d="M190.3,257.2c-4.7-0.1-8.2-4.5-9.6-9c-1.4-4.5-1.4-9.3-2.9-13.7c-1.8-5.7-6.2-10.7-11.9-12.6
						c-5.7-1.8-12.6,0.1-16,5.1c-3.4,5-2.2,12.7,2.9,15.9l2.4,8.1c6.1,10.4,19.9,15.5,31.3,11.5c-1.1-1.4-2.2-2.8-3.3-4.1
						C185.6,259.2,188.4,258.7,190.3,257.2z"/>
				</g>
				<rect x="155.6" y="243.4" class="st15" width="3.3" height="98.8"/>
				<rect x="155.6" y="243.4" class="st18" width="3.3" height="98.8"/>
				<path class="st10" d="M153.6,243.4c0,0-1.8-0.7-2.9-2.3c0,0,13.3,0.2,13.2,0c-0.2-0.2-1.2,1.9-3.6,2.3H153.6z"/>
			</g>
		</g>
		<g>
			<path class="st10" d="M128.5,249.8c-1.9,0-4.4,0-6.9,0c-4,0.1-7.4,2.9-8.2,6.7l-2.8,13l-3.4,19.9c-0.2,1.3,0.8,2.6,2.2,2.6h18.9
				c1.9,0,3.4-1.5,3.4-3.4l0-35.7C131.6,251.2,130.2,249.8,128.5,249.8z M119.8,262.6l-2.4,12.5c-0.3,1.5-1.8,2.5-3.3,2.2
				c-1.5-0.3-2.5-1.8-2.2-3.3l2.4-12.5c0.3-1.5,1.8-2.5,3.3-2.2C119.1,259.6,120.1,261.1,119.8,262.6z"/>
			<path class="st14" d="M128.5,249.8c-1.9,0-4.4,0-6.9,0c-4,0.1-7.4,2.9-8.2,6.7l-2.8,13l-3.4,19.9c-0.2,1.3,0.8,2.6,2.2,2.6h18.9
				c1.9,0,3.4-1.5,3.4-3.4l0-35.7C131.6,251.2,130.2,249.8,128.5,249.8z M119.8,262.6l-2.4,12.5c-0.3,1.5-1.8,2.5-3.3,2.2
				c-1.5-0.3-2.5-1.8-2.2-3.3l2.4-12.5c0.3-1.5,1.8-2.5,3.3-2.2C119.1,259.6,120.1,261.1,119.8,262.6z"/>
			<rect x="120.7" y="243.3" class="st15" width="8.8" height="6.4"/>
		</g>
		<path class="st10" d="M145.2,435.8c-1.6,0.8,0-150.3,0-150.3h83.5c0,0-14.4,151.7-16,150.3C211.1,434.5,145.2,435.8,145.2,435.8z"
			/>
		<polygon class="st16" points="145,298.6 226.4,309.4 227.3,299.8 		"/>
		<g>
			<polygon class="st15" points="81.7,432.5 76.7,378.3 124.7,378.3 119.3,432.3 			"/>
			<polygon class="st14" points="81.7,432.5 76.7,378.3 124.7,378.3 119.3,432.3 			"/>
			<rect x="74.8" y="377.8" class="st15" width="51.7" height="3.4"/>
		</g>
		<rect x="74.8" y="432" class="st15" width="149.1" height="7.7"/>
		<rect x="129.6" y="291" class="st15" width="9.6" height="140.9"/>
		<rect x="74.8" y="291.1" class="st15" width="153.9" height="7.9"/>
		<circle class="st15" cx="95" cy="441.1" r="13.8"/>
		<circle class="st10" cx="95" cy="441" r="6.9"/>
		<circle class="st15" cx="199.3" cy="436.5" r="18.4"/>
		<circle class="st10" cx="199.3" cy="436.4" r="9.2"/>
		<g>
			<rect x="103.9" y="240.8" class="st15" width="2" height="5.7"/>
			<g>
				<path class="st10" d="M107.2,270.9c-1.2-3.9-8.6-7.6-8.2-10.4c0.3-2.8,0.3-6.5,0.3-6.5H92c-0.6,0.6-6.8,12.9-4.5,27.4l2,9.6
					h14.6C104.1,291,108.5,274.8,107.2,270.9z"/>
				<rect x="91.1" y="250" class="st15" width="8.6" height="3.6"/>
				<path class="st15" d="M85,248.3c0,0,1-6.4,5.6-6.8c4.6-0.4,13.3,0,13.3,0v4.3h-4.2v4.2h-8.3v-3.1
					C91.4,246.9,89.3,245.5,85,248.3z"/>
				<path class="st15" d="M99.7,248.4c0,0,0.7,3.6,6,4l0.2-0.9c0,0-4.1-1.3-4.2-5.7h-2V248.4z"/>
			</g>
		</g>
		<g>
			<rect x="141.2" y="281.8" class="st10" width="90" height="9.7"/>
			<rect x="141.2" y="281.8" class="st19" width="90" height="9.7"/>
		</g>
		<polygon class="st16" points="77.2,383.7 76.9,381.2 124.3,381.2 124.3,383.7 		"/>
		<polygon class="st20" points="131.6,260.1 123.7,260.1 119.9,284.7 131.6,284.7 		"/>
		<g class="st21">
			<rect x="74.8" y="377.8" class="st2" width="51.7" height="3.4"/>
		</g>
		<path class="st22" d="M76.9,379.5c0,0,7,27.3,45.2,24.9"/>
	</g>
</g>
<g id="Character_2_00000028311002483424302490000005210029611792597175_">
	<g>
		<g>
			<g>
				<path class="st23" d="M539.5,217.9l-4.2,17.1l-35.2,20.9l2.6,6.8c0,0,39.9-10.5,42.6-14.1c2.7-3.6,9.9-27.6,9.9-27.6
					L539.5,217.9z"/>
				<polygon class="st19" points="538.5,222.1 537.8,224.8 550.1,228.1 551.9,231.3 552.7,229.1 551.5,223.5 				"/>
				<g>
					<g>
						<g>
							<g>
								<g>
									<g>
										<g>
											<path class="st10" d="M508.3,253.1c0,0-1.8-2.9-4.5-3.5c-2.7-0.6-4.8-1.8-6.8-2.1c-2.1-0.3-0.2,1.8,1,2.8
												c1.2,0.9,2.6,2,1.7,2.8c-0.9,0.8-10.6,3-11.7,4.3c-1.1,1.2,0.6,1.4,0.6,1.4s-2.4,0.6-2.4,1.6c0,0.3,0.4,0.9,1.5,0.8
												c2.5-0.2,7.8-1,7.8-1c-0.3,0-6.7,1.5-7.7,1.8c-1.2,0.4-1.6,1.3-1.3,2c0.4,1,8.4-0.5,8.8-0.3c0,0-4.6,0.7-5.1,2
												c-0.5,1.3,2.5,1,5,0.3c2.3-0.7,7.1-1.4,9.4-2.4c2.8-1.1,4.5-2.6,4.6-5.4C509.4,255.1,508.3,253.1,508.3,253.1z"/>
										</g>
									</g>
								</g>
							</g>
						</g>
					</g>
					<path class="st24" d="M488.9,258.5c1.9-0.4,3.8-0.8,5.8-1.1"/>
					<path class="st24" d="M497.2,263.2c-1.2-2.2-1.7-4.8-1.5-7.3"/>
				</g>
			</g>
			<polyline class="st10" points="505.6,251.9 514,246.9 517.9,259.6 505.6,262.2 507.2,256.7 505.3,252 			"/>
		</g>
		<g>
			<g>
				<g>
					<g>
						<g>
							<polygon class="st23" points="554.8,423.9 547,445.6 539.8,443.3 542.1,420.5 							"/>
						</g>
					</g>
				</g>
			</g>
			<g>
				<g>
					<g>
						<g>
							<g>
								<g>
									<g>
										<g>
											<g>
												<g>
													<g>
														<g>
															<path class="st15" d="M548.2,452L548.2,452c-0.2,1.6-0.3,2.7-0.3,2.7l-6.6,0c0,0-1.3-0.7-2.1-0.6
																c-0.8,0.1-3.5,0.6-3.5,0.6l-17.4,0c0.1-0.7,0.3-1.4,0.5-2c0.2-0.7,0.5-1.3,0.8-1.8c1.1-1.8,2.5-2.4,4.2-2.5
																c2.4-0.2,10.1-5.3,10.1-5.3s2.8-1,2.9-3.9c0.1-1.1,1.7-2.5,2.5-2.6c1.6-0.2,2.5,0.8,2.7,2.4l0.3,1.9l3.7-0.6
																c0,0,3.7-1.9,3.6-0.1"/>
														</g>
													</g>
												</g>
											</g>
										</g>
									</g>
									<g class="st25">
										<path class="st2" d="M518.3,454.7l17.4,0c0,0,2.7-0.5,3.5-0.6c0.8-0.1,2.1,0.6,2.1,0.6l6.6,0c0,0,0.1-1.1,0.3-2.7
											l-29.4,0.8C518.6,453.3,518.5,454,518.3,454.7z"/>
									</g>
									<g>
										<g>
											<g>
												<g>
													<path class="st10" d="M530.1,445c0.1-0.1,0.2-0.1,0.3,0c0.4,0.3,0.8,0.7,1,1.2c0.1,0.3-0.3,0.5-0.4,0.3
														c-0.2-0.5-0.5-0.8-0.9-1.1C530,445.3,530,445.2,530.1,445C530.1,445,530.1,445,530.1,445z"/>
												</g>
											</g>
										</g>
									</g>
									<g>
										<g>
											<g>
												<g>
													<path class="st10" d="M531.5,444.2c0.1-0.1,0.2-0.1,0.3,0c0.4,0.3,0.8,0.7,1,1.2c0.1,0.3-0.3,0.5-0.4,0.3
														c-0.2-0.5-0.5-0.8-0.9-1.1C531.4,444.5,531.4,444.3,531.5,444.2C531.5,444.2,531.5,444.2,531.5,444.2z"/>
												</g>
											</g>
										</g>
									</g>
									<g>
										<g>
											<g>
												<g>
													<path class="st10" d="M532.9,443.5c0.1-0.1,0.2-0.1,0.3,0c0.4,0.3,0.8,0.7,1,1.2c0.1,0.3-0.3,0.5-0.4,0.3
														c-0.2-0.5-0.5-0.8-0.9-1.1C532.8,443.7,532.8,443.6,532.9,443.5C532.9,443.5,532.9,443.5,532.9,443.5z"/>
												</g>
											</g>
										</g>
									</g>
								</g>
							</g>
						</g>
					</g>
				</g>
			</g>
		</g>
		<g>
			<g>
				<g>
					<g>
						<g>
							<polygon class="st23" points="605,421.5 608.4,445 616.1,445.3 618.4,422.6 							"/>
						</g>
					</g>
				</g>
			</g>
			<g>
				<g>
					<g>
						<path class="st15" d="M622.7,455.7l-17.1,0.2c0,0-0.4-0.7,0-2.6c0.1-0.3,0.1-0.6,0.3-1c0,0,0,0,0-0.1c0.2-0.5,0.3-1.2,0.5-1.9
							c0.8-2.9,1.6-6.6,1.6-6.6s2.8-6.1,6.1-4.6c2.9,1.3,2.3,5.1,2.3,5.1s0.3,2.2,2.5,4.2c1.4,1.2,2.8,2.1,3.4,3.7
							c0.1,0.3,0.2,0.6,0.3,0.9c0,0,0,0.1,0,0.1C622.9,453.8,622.9,454.7,622.7,455.7z"/>
					</g>
				</g>
			</g>
			<g class="st25">
				<path class="st2" d="M605.6,453.3c-0.4,1.9,0,2.6,0,2.6l17.1-0.2c0.2-1,0.2-1.9,0-2.6L605.6,453.3z"/>
			</g>
			<g>
				<g>
					<g>
						<g>
							<path class="st10" d="M615.8,445.2c-1-0.7-2.2-0.6-3.1,0.2c-0.2,0.2-0.6-0.1-0.4-0.4c1.1-1.1,2.6-1.1,3.8-0.2
								C616.4,445,616,445.4,615.8,445.2L615.8,445.2z"/>
						</g>
					</g>
				</g>
			</g>
			<g>
				<g>
					<g>
						<g>
							<path class="st10" d="M616.3,446.8c-1-0.7-2.2-0.6-3.1,0.2c-0.2,0.2-0.6-0.1-0.4-0.4c1.1-1.1,2.6-1.1,3.8-0.2
								C616.9,446.6,616.5,447,616.3,446.8L616.3,446.8z"/>
						</g>
					</g>
				</g>
			</g>
			<g>
				<g>
					<g>
						<g>
							<path class="st10" d="M616.8,448.2c-1-0.7-2.2-0.6-3.1,0.2c-0.2,0.2-0.6-0.1-0.4-0.4c1.1-1.1,2.6-1.1,3.8-0.2
								C617.4,448.1,617,448.4,616.8,448.2L616.8,448.2z"/>
						</g>
					</g>
				</g>
			</g>
		</g>
		<g>
			<g>
				<g>
					<path class="st15" d="M622.8,276.4l-35.8,0.7l-22.5-0.5c0,0-15.1,68.2-16.3,81c-1.2,12.8-12.1,80.4-12.1,80.4l17.5,3.7
						c0,0,19.2-72.4,20.5-79.3c1.2-6.1,14.6-44.9,18.1-54.8c0.4,2,0.8,4,1.1,6c1,9.1,4.1,38,5.5,48.8c0,0,3.3,61.5,6.6,79.4
						l16.5-0.1c1.9-25.4,2.4-114.6,2.4-114.6l0,0C625.4,307.8,622.8,276.4,622.8,276.4z"/>
				</g>
			</g>
			<g class="st21">
				<path d="M573.8,286.7c-2,6.9-7.6,12.5-14.4,14.5c-0.4,0.1-0.2,0.7,0.2,0.6c7.1-2.1,12.8-7.9,14.8-15
					C574.5,286.5,573.9,286.3,573.8,286.7L573.8,286.7z"/>
				<path d="M592.6,286.5c-0.3,6-0.7,12-1,18c0,0.4-0.6,0.4-0.6,0c0.2-3.1,0.4-6.2,0.5-9.3c-1.5,1.2-3.2-0.2-3.7-1.7
					c-0.8-2.5-0.5-5.4,0-7.9c0.1-0.4,0.7-0.2,0.6,0.1c-0.4,1.7-0.6,3.5-0.4,5.3c0.1,0.9,0.2,2,0.6,2.8c0.5,0.9,1.7,1.7,2.6,0.8
					c0.1-0.1,0.2-0.1,0.3-0.1c0.2-2.7,0.3-5.5,0.5-8.2C592,286.1,592.6,286.1,592.6,286.5z"/>
				<path d="M610.3,287.4c0,8,6.2,14.6,14.1,15.1c0.4,0,0.4-0.6,0-0.6c-7.6-0.5-13.5-6.9-13.5-14.5C610.9,287,610.3,287,610.3,287.4
					L610.3,287.4z"/>
			</g>
			<g class="st19">
				<g>
					<path class="st2" d="M622.8,276.4l-35.8,0.7l-22.5-0.5c0,0-15.1,68.2-16.3,81c-1.2,12.8-12.1,80.4-12.1,80.4l17.5,3.7
						c0,0,19.2-72.4,20.5-79.3c1.2-6.1,14.6-44.9,18.1-54.8c0.4,2,0.8,4,1.1,6c1,9.1,4.1,38,5.5,48.8c0,0,3.3,61.5,6.6,79.4
						l16.5-0.1c1.9-25.4,2.4-114.6,2.4-114.6l0,0C625.4,307.8,622.8,276.4,622.8,276.4z"/>
				</g>
			</g>
		</g>
		<path class="st10" d="M551,193.5c-7.1,4.2-14.1,28.8-14.1,28.8l21.6,7l6.9-14.4L551,193.5z"/>
		<path class="st16" d="M555.7,214.1l-1.1,14l-5-1.7c2-5.4,1-25.2,1-25.2S553.8,210.5,555.7,214.1z"/>
		<g id="freepik--group--inject-124_00000006693355082606306160000004963946775558344110_">
			<path class="st10" d="M596.2,184.5c-4,3-8.6,9.9-5,17.4c2.6,5.3,10.1,15.7,10.1,15.7l18.8-10.6
				C620.1,207.1,603.3,180.6,596.2,184.5z"/>
		</g>
		<g>
			<path class="st10" d="M554.9,191.7c5.1-1.5,20.4-7.1,42.3-7.6l11.6,21.3l10.9,52.9c0,0,2.1,6.1,3.9,17.6
				c-20,13.3-47.5,13-63.3,7.4c-0.6-6.8,0.4-5.5-1-18.7c-2.6-23.2-7.6-49.8-8.4-71C550.8,193.2,554.4,191.8,554.9,191.7z"/>
		</g>
		<g>
			<path class="st15" d="M557,215.8c-0.4,1.9,2.8,42.7,2.8,42.7s0.5,12.3,1,14.3c0.5,1.9-14.5,113.7-4.3,118.9s55.1,2.2,55.1,2.2
				s-1-125.1,1.4-132c2.4-7,6.7-9.9,6.7-9.9l-2.9-14.9l-7.1,0.4c0,0-9.4-31.2-13.5-29.6C591.9,209.4,557,215.8,557,215.8z"/>
			<g>
				<g>
					<path class="st15" d="M558.9,217.3c0.9,0.1,1.8,0.2,2.7,0.3c0,0,0,0,0,0c0,0,0-0.1,0-0.1c0,0,0,0.4,0,0.1c0-0.2,0-0.5,0-0.7
						c0-0.7,0-1.5,0-2.2c0-2.3,0.1-4.5,0.1-6.8c0.1-4.9,0.3-9.8,0.5-14.7c0-1.1,0.1-2.2,0.1-3.3c0.1-1.9-2.9-1.9-3,0
						c-0.4,8.7-0.9,17.5-0.7,26.3c0,0.7,0,1.4,0.1,2.1c0.3,1.4,2.1,1.7,2.9,0.5C562.5,217.2,559.9,215.7,558.9,217.3L558.9,217.3z"
						/>
				</g>
			</g>
			<g>
				<g>
					<path class="st15" d="M596.9,213.3c-3-9.7-6-19.4-9-29c-0.6-1.8-3.5-1.1-2.9,0.8c3,9.7,6,19.4,9,29
						C594.6,216,597.5,215.2,596.9,213.3L596.9,213.3z"/>
				</g>
			</g>
			<g>
				<polyline class="st26" points="583,223.8 593.3,220.1 595.9,227.2 585.5,230.9 				"/>
				<path class="st10" d="M585.5,219l1.9,3.3c0.2,0.4,0.8,0.6,1.2,0.4l0,0c0.4-0.2,0.6-0.6,0.6-1l-0.4-4.2L585.5,219z"/>
				<path class="st27" d="M585.5,219l1.9,3.3c0.2,0.4,0.8,0.6,1.2,0.4l0,0c0.4-0.2,0.6-0.6,0.6-1l-0.4-4.2L585.5,219z"/>
			</g>
		</g>
		<g class="st16">
			<path d="M593.8,273c4.6-1,8.3-5.8,10.3-10.1c2-4.4,4.3-11.8,4.3-11.8c-2.7,3.5-5.4,6.9-8,10.4c-1.6,2.1-3.3,4.3-5.5,5.9
				c-3,2.3-6.6,3.4-10.3,4.3c-4.7,1.2-9.4,2-14.2,2.5C570.4,274.3,581.3,275.9,593.8,273z"/>
		</g>
		<path class="st23" d="M619.2,207.6c0,0,13.6,20.5,11.7,25.9c-1.9,5.4-34.5,32.7-34.5,32.7l-4.7-7.6l22.1-28.3l-8.8-14.7
			L619.2,207.6z"/>
		<g>
			<g>
				<g>
					<path class="st23" d="M578.9,185.3c0,0-2.6-5.7-2.3-17.1c0,0-0.6-0.1-0.6-0.1c0-1.6,0.1-3.1,0.3-4.4c0,0,0,0,0,0l-12.2,12.7
						c1.2,3.3,1.7,10.2,1.7,13.1c0,0-0.5,5.5,6.2,4C576.8,192.3,578.9,185.3,578.9,185.3z"/>
					<path class="st25" d="M565,181.2l7.9-4c-0.1,2.8-1.6,6.5-7.3,8.2C565.6,185.3,565.4,182.3,565,181.2z"/>
				</g>
				<g>
					<path class="st15" d="M547.6,153.8c-0.8,3.8,0.4,11.3,5.4,8.4C558,159.3,549.1,147.3,547.6,153.8z"/>
					<path class="st23" d="M574.6,156.6c1.4,9.4,2.3,14.7-1.4,20.5c-5.6,8.6-17.7,6.8-21.9-2.1c-3.8-8-5.4-22.1,3-27.6
						C562.6,141.9,573.2,147.1,574.6,156.6z"/>
					<path class="st15" d="M573.8,145.3c-2.4-4.9-15.6-2.4-18.7,1c-0.5,0.5,8,2.7,7.5,2.7l3.9,0.5c0.5-0.2,1.7,0.2,2.7,1.8
						c0,0,0.7,10.2,5.6,13.5c3.7-2.7,4.4-4.6,4.7-8.2C580,151.1,576.5,147.7,573.8,145.3z"/>
					<path class="st23" d="M579.9,163.6c-0.2,2.6-1.7,4.8-3.3,6.1c-2.5,2-5,0-5.3-3c-0.3-2.7,0.6-7,3.6-7.8
						C577.8,158.1,580.2,160.7,579.9,163.6z"/>
					<path class="st15" d="M561.8,162.1c0.2,1-0.1,1.8-0.8,2c-0.6,0.1-1.3-0.5-1.5-1.5c-0.2-1,0.1-1.8,0.8-2
						C560.9,160.4,561.6,161.1,561.8,162.1z"/>
					<path class="st15" d="M552.5,164.2c0.2,1-0.1,1.8-0.8,2c-0.6,0.1-1.3-0.5-1.5-1.5c-0.2-1,0.1-1.8,0.8-2
						C551.6,162.6,552.3,163.2,552.5,164.2z"/>
					<path class="st28" d="M555.4,163c0,0-2,5.4-2.6,7.5c1.6,0.9,3.8-0.1,3.8-0.1L555.4,163z"/>
					<path class="st15" d="M563.2,157.1c-0.1,0.1-0.3,0.1-0.5,0c-1.8-0.9-3.3-0.1-3.3-0.1c-0.2,0.1-0.5,0.1-0.6-0.2
						c-0.1-0.2-0.1-0.5,0.2-0.6c0.1,0,1.9-1.1,4.2,0c0.2,0.1,0.3,0.4,0.2,0.6C563.3,157,563.3,157,563.2,157.1z"/>
				</g>
				<path class="st29" d="M577.2,161.4c-0.5-0.5-1.3-0.5-1.9-0.2c-0.6,0.3-1.1,0.9-1.3,1.5c-0.3,0.7-0.5,1.6-0.4,2.4"/>
			</g>
			<g>
				<g>
					<path d="M565.6,168.2l-7.3,4.9c0.7,0.7,1.4,1.5,2.3,2c0.9,0.5,1.8,0.6,2.8,0.4c1.4-0.3,2.6-1.5,2.8-3
						C566.5,171.1,566.1,169.6,565.6,168.2z"/>
				</g>
				<path class="st2" d="M558.9,172.7c0,0,0.8,0.9,1.4,0.9s5.8-3.9,5.8-3.9l-0.5-1.5L558.9,172.7z"/>
				<path class="st30" d="M562.4,175.7c0,0,0-1.5,1.5-2.6c1.5-1.1,2.4-1,2.4-1s0,1.8-1.4,2.8C563.5,175.8,562.4,175.7,562.4,175.7z"
					/>
			</g>
			<g>
				<path class="st10" d="M546.9,155.3c0,0,3-15.2,16.4-14.8c13.4,0.4,16.1,7.7,16.3,15.6c0,0-13.1-2.8-18.7-3.4
					C555.3,152.2,546.9,155.3,546.9,155.3z"/>
				<path class="st16" d="M546.9,155.3c0,0,3-15.2,16.4-14.8c13.4,0.4,16.1,7.7,16.3,15.6c0,0-13.1-2.8-18.7-3.4
					C555.3,152.2,546.9,155.3,546.9,155.3z"/>
			</g>
			<g>
				<path class="st10" d="M553.5,151.6c-7.1,1.3-9.8,1.6-15.9,4.7c-1,0.5-2,1.1-2.6,1.9c-0.6,0.9-0.8,2.2-0.2,3.1
					c0.4,0.6,1.1,1,1.8,1.1c2.5,0.3,8.1-0.1,11.6-0.7l0.1-3.4c0-1.8,1.2-3.3,2.8-3.9c2.3-0.7,5.2-1.4,7.8-1.4
					c6.1,0.1,11.2,0.8,17.2,2.3c-5.1-2.5-8.5-3.5-14.4-4C560.2,151.2,557.7,150.8,553.5,151.6z"/>
			</g>
			<g>
				<path class="st10" d="M567.4,139.6c-0.5-0.3-1.2-0.4-1.8-0.2c-0.6,0.2-1.1,0.7-1.4,1.2l4,0.6
					C568.2,140.6,567.9,139.9,567.4,139.6z"/>
			</g>
			<path class="st15" d="M547.5,161c-0.1,0-0.2,0-0.3-0.1c-0.2-0.1-0.3-0.4-0.1-0.6c1.4-2.1,3.5-2.1,3.6-2.1c0.3,0,0.5,0.2,0.5,0.5
				c0,0.3-0.2,0.5-0.5,0.4c-0.1,0-1.7,0-2.8,1.7C547.8,161,547.7,161,547.5,161z"/>
		</g>
		<g>
			<g>
				<path class="st3" d="M490.9,441.1c10.2-23.8,21.2-47.3,32.8-70.4c11.9-23.9,24.5-47.5,38.1-70.5c3.1-5.2,6.2-10.3,9.4-15.4
					c0.9-1.4,1.9-2.9,2.8-4.3c0.2-0.3,0.5-0.7,0.7-1c0,0,0.9-1.2,0.3-0.4c0.5-0.7,1.1-1.3,1.6-2c1.1-1.3,2.4-2.4,3.6-3.6
					c1-0.9-0.7,0.4,0.4-0.3c0.3-0.2,0.7-0.5,1-0.7c0.7-0.5,1.4-0.9,2.1-1.2c0.4-0.2,0.7-0.4,1.1-0.5c-0.9,0.4,0.3-0.1,0.4-0.2
					c0.8-0.3,1.5-0.5,2.3-0.7c0.4-0.1,0.8-0.2,1.2-0.2c-1.1,0.2,0.3,0,0.4,0c0.4,0,0.8,0,1.2,0c0.1,0,1.5,0.1,1,0
					c-0.7-0.1,0.6,0.1,0.6,0.1c0.4,0.1,0.7,0.2,1.1,0.3c0.3,0.1,0.6,0.2,0.9,0.3c1,0.3-0.9-0.5,0.1,0c0.5,0.3,1.1,0.5,1.6,0.9
					c0.3,0.2,0.5,0.3,0.7,0.5c0.4,0.3,0.3,0.2-0.2-0.2c0.2,0.1,0.3,0.3,0.5,0.4c0.4,0.3,0.7,0.7,1.1,1c0.2,0.2,0.4,0.4,0.6,0.7
					c0.2,0.2,0.9,0.8,0.1,0c0.9,0.8,1.6,2.3,2.1,3.4c0.1,0.3,0.3,0.6,0.4,0.9c0,0.1,0.5,1,0.2,0.3c-0.3-0.7,0.1,0.3,0.1,0.4
					c0.1,0.3,0.2,0.6,0.3,0.9c0.5,1.4,0.9,2.7,1.2,4.2c0.3,1.2,0.5,2.4,0.7,3.6c0.2,1.1-0.1-1,0,0.1c0,0.3,0.1,0.7,0.1,1
					c0.1,0.8,0.1,1.5,0.2,2.3c0.2,3.5,0.2,7,0.1,10.5c-0.2,7.9-0.7,15.7-1.3,23.5c-1.1,15.3-2.1,30.8,0.2,46.1
					c1.7,11.7,5.5,23.3,11.8,33.4c3.1,5,6.9,9.6,11.3,13.5c2.3,2,4.8,3.9,7.4,5.5c2,1.2,4.3,2.7,6.6,3.3c2.8,0.6,5.8,0.9,8.7,1.1
					c2.4,0.1,4.6-2.2,4.5-4.5c-0.1-2.5-2-4.4-4.5-4.5c-0.9,0-1.8-0.1-2.7-0.2c-0.4,0-0.8-0.1-1.2-0.1c1.2,0.1,0,0-0.2,0
					c-0.8-0.1-1.7-0.4-2.6-0.5c0,0-0.1,0-0.2,0c0.2,0.1,0.5,0.2,0.7,0.3c-0.2-0.1-0.4-0.2-0.6-0.3c-0.5-0.3-1.1-0.5-1.6-0.8
					c-1.3-0.7-2.7-1.5-3.9-2.4c-0.6-0.4-1.2-0.8-1.7-1.2c-0.1-0.1-1.1-0.8-0.2-0.1c-0.3-0.2-0.5-0.4-0.8-0.7
					c-1.1-0.9-2.1-1.8-3.1-2.8c-1-1-2-2-2.9-3c-0.5-0.5-0.9-1.1-1.4-1.6c-0.2-0.3-0.4-0.5-0.7-0.8c-0.3-0.4-0.3-0.4,0.1,0.1
					c-0.1-0.2-0.3-0.4-0.4-0.6c-1.7-2.3-3.2-4.7-4.6-7.2c-0.7-1.3-1.4-2.5-2-3.8c-0.3-0.5-0.5-1.1-0.8-1.6c-0.1-0.3-0.3-0.7-0.4-1
					c-0.2-0.5-0.2-0.4,0,0.1c-0.1-0.2-0.2-0.4-0.3-0.7c-2.2-5.5-3.9-11.3-5-17.1c-0.2-1.3-0.5-2.6-0.7-3.9c0-0.2-0.2-1.4,0-0.2
					c0-0.4-0.1-0.7-0.1-1.1c-0.1-0.8-0.2-1.7-0.3-2.5c-0.4-3.8-0.5-7.6-0.6-11.5c-0.1-8,0.3-16,0.9-24c0.5-8,1.2-16,1.5-24
					c0.2-6.9,0.4-13.8-0.7-20.6c-0.8-5.4-2.6-11.1-5.9-15.5c-3.9-5.2-9.6-8.6-16.2-8.5c-15.5,0.1-23.9,14.9-31,26.5
					c-13.9,22.6-26.5,45.9-38.5,69.5c-12,23.6-23.5,47.6-34.1,71.9c-1.2,2.7-2.3,5.4-3.5,8.1c-0.9,2.2-0.7,4.9,1.6,6.2
					C486.6,443.7,489.9,443.4,490.9,441.1L490.9,441.1z"/>
			</g>
		</g>
		<g>
			<path class="st10" d="M714.3,442.9h-57.2c-2.2,0-4.1-1.8-4.1-4.1v-70c0-2.2,1.8-4.1,4.1-4.1h57.2c2.2,0,4.1,1.8,4.1,4.1v70
				C718.4,441.1,716.6,442.9,714.3,442.9z"/>
			<rect x="651.2" y="376.1" class="st15" width="69.1" height="9.7"/>
			<path class="st15" d="M651.5,368c0.6,0,68.8,0,68.8,0l-1-6.2h-11.4l-8.3-8.3h-31.3l-7.3,8.3l-9.5,0.4V368z"/>
			<circle class="st15" cx="708.9" cy="441" r="12.5"/>
			<circle class="st15" cx="666.8" cy="446.2" r="7.5"/>
			<rect x="643.7" y="418.1" class="st10" width="9.3" height="9.3"/>
			<rect x="653" y="385.9" class="st19" width="65.4" height="3.5"/>
		</g>
		<g>
			<rect x="446.2" y="444.5" class="st15" width="64.5" height="8.1"/>
			<rect x="454.6" y="441.4" class="st15" width="46.5" height="4.7"/>
			<path class="st15" d="M478.7,441.8c0.2,0,6.9-14.2,6.9-14.2l11.2,2.3l-5.4,11.4L478.7,441.8z"/>
		</g>
		<path class="st10" d="M591.4,255.8c-0.6,0.1-9.4,3.3-12.7,7.7l4.1-0.9l-4.4,11c0,0-0.9,4.7,5.1,1.9c6-2.7,7.9,2.4,11.6-3.1
			c3.7-5.5,7.7-10.9,7.7-10.9l6.5-4.6l-11.2-11.7L591.4,255.8z"/>
		<rect x="651.2" y="418.1" class="st19" width="1.8" height="9.3"/>
		<g>
			<g>
				<path class="st10" d="M720.9,393.9c0,8.4,0,16.9,0,25.3c0,0.5,0.8,0.5,0.8,0c0-8.4,0-16.9,0-25.3
					C721.6,393.4,720.9,393.4,720.9,393.9L720.9,393.9z"/>
			</g>
		</g>
		<g>
			<g>
				<path class="st10" d="M720.9,423.4c0,1,0,2.1,0,3.1c0,0.5,0.8,0.5,0.8,0c0-1,0-2.1,0-3.1C721.6,422.9,720.9,422.9,720.9,423.4
					L720.9,423.4z"/>
			</g>
		</g>
	</g>
</g>
<g id="Desk">
	<g>
		<g>
			<g>
				<path class="st31" d="M531.1,298.7c0.2,2.6-1.4,4.6-3.6,4.6h-70.2c-2.2,0-4.2-2.1-4.4-4.6l-4.2-51.7c0-0.5,0-1,0.1-1.5
					c0.4-1.8,1.8-3.1,3.6-3.1h70.2c2.2,0,4.2,2.1,4.4,4.6L531.1,298.7z"/>
				<path class="st32" d="M531.1,298.7c0.2,2.6-1.4,4.6-3.6,4.6h-70.2c-2.2,0-4.2-2.1-4.4-4.6l-4.2-51.7c0-0.5,0-1,0.1-1.5
					c0.4-1.8,1.8-3.1,3.6-3.1h70.2c2.2,0,4.2,2.1,4.4,4.6L531.1,298.7z"/>
				<path class="st31" d="M527.2,303.4h-70c-2.2,0-4.2-2.1-4.4-4.6l-4.2-51.7c0-0.5,0-1,0.1-1.5h70c2.2,0,4.2,2.1,4.4,4.6l4.2,51.7
					C527.3,302.4,527.3,302.9,527.2,303.4z"/>
				<path class="st33" d="M527.2,303.4h-70c-2.2,0-4.2-2.1-4.4-4.6l-4.2-51.7c0-0.5,0-1,0.1-1.5h70c2.2,0,4.2,2.1,4.4,4.6l4.2,51.7
					C527.3,302.4,527.3,302.9,527.2,303.4z"/>
				<polygon class="st31" points="480.1,291.3 494.2,291.4 491.5,316.8 505.3,317 505.3,320 468,320.1 468,317.2 477,317 				"/>
			</g>
			<path class="st19" d="M494.2,291.4c0,0.4,3.1,12,3.1,12h-4.4L494.2,291.4z"/>
			<polygon class="st19" points="478.6,303.4 480.1,291.3 476.4,303.4 			"/>
		</g>
		<g>
			<g>
				<rect x="440.2" y="321.4" class="st31" width="4.9" height="133.5"/>
				<rect x="440.2" y="321.4" class="st34" width="4.9" height="133.5"/>
			</g>
			<g>
				<rect x="405.3" y="321.4" class="st31" width="4.9" height="133.5"/>
				<rect x="405.3" y="321.4" class="st34" width="4.9" height="133.5"/>
				<polygon class="st25" points="405.3,329.9 405.3,338.5 410.2,336.3 410.2,329.1 				"/>
				<polygon class="st25" points="440.2,329.9 440.2,338.5 445.1,336.3 445.1,329.1 				"/>
			</g>
			<g>
				<rect x="543.7" y="321.4" class="st31" width="4.9" height="133.5"/>
				<rect x="543.7" y="321.4" class="st34" width="4.9" height="133.5"/>
				<polygon class="st25" points="543.7,329.9 543.7,338.5 548.5,336.3 548.5,329.1 				"/>
			</g>
			<g>
				<rect x="588.2" y="321.4" class="st31" width="4.9" height="133.5"/>
				<rect x="588.2" y="321.4" class="st34" width="4.9" height="133.5"/>
				<polygon class="st25" points="588.2,329.8 588.2,338.4 593.1,336.2 593.1,329 				"/>
			</g>
			<g>
				<rect x="399" y="320" class="st31" width="200.1" height="9.9"/>
				<rect x="552.2" y="320" class="st35" width="46.9" height="9.9"/>
			</g>
		</g>
		<polygon class="st26" points="480.1,291.3 494.2,291.4 491.5,316.8 505.3,317 505.3,320 468,320.1 468,317.2 477,317 		"/>
	</g>
</g>
<g id="Plant">
	<g>
		<g>
			<path class="st10" d="M394.3,396c2.6-3.2,7.7-5.4,13.3-6.5c-0.4,1.6-0.1,3.1,0.8,3.4c1.1,0.4,2.5-0.7,3.2-2.5
				c0.2-0.5,0.3-1,0.3-1.5c5.6-0.5,11.3,0.2,15,2c0,0-3.7,3.3-7.8,12c-0.1,0-0.3,0-0.4,0c-2.7,0-4.9,1.3-4.9,2.9
				c0,1.2,1.2,2.1,2.9,2.6c-0.2,0.6-0.4,1.1-0.7,1.7c-4,10.7-14.6,3-14.5-4.4C401.6,405.8,388.4,403.3,394.3,396z"/>
			<g>
				<path class="st10" d="M381.2,382.2c-3.2-3.5-9.2-5.6-15.6-6.4c0.6,1.8,0.4,3.5-0.7,4c-1.2,0.5-2.9-0.6-3.8-2.6
					c-0.3-0.6-0.4-1.1-0.5-1.7c-6.5-0.1-12.8,1.1-17,3.4c0,0,4.4,3.5,9.8,13.1c0.1,0,0.3,0,0.4,0c3.1-0.2,5.7,1.2,5.8,3
					c0.1,1.3-1.2,2.5-3.1,3.1c0.3,0.6,0.6,1.3,0.9,1.9c5.3,12,16.8,2.3,16.2-6.1C373.6,393.9,388.5,390,381.2,382.2z"/>
				<g>
					<g>
						<g>
							<path class="st10" d="M373.3,379.5c1.4-6.7,7.2-13.7,14.5-19.5c0.6,2.7,2.2,4.6,3.8,4.4c1.8-0.2,3-2.9,2.7-6.1
								c-0.1-0.9-0.3-1.7-0.6-2.4c7.9-4.9,16.6-8.3,23.4-8.5c0,0-2.8,7.6-2.3,23.5c-0.2,0.1-0.4,0.2-0.6,0.3
								c-3.9,2.1-6.1,5.6-4.9,7.9c0.9,1.7,3.4,2.2,6.1,1.6c0.1,1,0.2,2,0.3,3c2.4,18.7-19,15.4-24.4,4.6
								C391.4,388.3,370.2,394.6,373.3,379.5z"/>
							<path class="st36" d="M373.3,379.5c1.4-6.7,7.2-13.7,14.5-19.5c0.6,2.7,2.2,4.6,3.8,4.4c1.8-0.2,3-2.9,2.7-6.1
								c-0.1-0.9-0.3-1.7-0.6-2.4c7.9-4.9,16.6-8.3,23.4-8.5c0,0-2.8,7.6-2.3,23.5c-0.2,0.1-0.4,0.2-0.6,0.3
								c-3.9,2.1-6.1,5.6-4.9,7.9c0.9,1.7,3.4,2.2,6.1,1.6c0.1,1,0.2,2,0.3,3c2.4,18.7-19,15.4-24.4,4.6
								C391.4,388.3,370.2,394.6,373.3,379.5z"/>
							<g>
								<path class="st15" d="M406.2,360.1c0.2-0.2,0.3-0.3,0.3-0.3C406.4,359.9,406.3,360,406.2,360.1z"/>
							</g>
						</g>
					</g>
				</g>
				<path class="st37" d="M388.7,422.1c-3.6-19.7,1.8-40.9,14.2-56.6"/>
				<path class="st38" d="M362.4,384.2c14.9,7.7,23.2,24.4,25.4,30.9c0,0,18.3-13.3,27.1-18.9"/>
				<g>
					<polygon class="st15" points="410.6,428.4 365.7,428.4 365.7,420.2 410.5,420.2 					"/>
					<polygon class="st15" points="369,425.8 376,454.9 401.8,454.9 408.1,425.8 					"/>
					<polygon class="st19" points="369.6,428.4 407.5,428.4 406.8,431.7 370.3,431.7 					"/>
				</g>
			</g>
		</g>
		<path class="st39" d="M368.2,418.5c1.3,0,2.7,0,4,0"/>
		<path class="st39" d="M374.1,418.5c3.6,0,7.3,0,10.9,0"/>
	</g>
</g>
<g id="Spray">
	<g>
		<g>
			<path class="st10" d="M428.7,298.8c-1.3-4.1-9-8.1-8.7-11c0.3-3,0.3-6.9,0.3-6.9h-7.7c-0.7,0.7-7.2,13.7-4.8,29l2.1,10.2h15.5
				C425.4,320.1,430,303,428.7,298.8z"/>
			<rect x="411.6" y="277.9" class="st15" width="9.1" height="3.8"/>
			<path class="st15" d="M405.2,276c0,0,1-6.8,6-7.2s14,0,14,0v4.6h-4.5v4.4H412v-3.3C412,274.6,409.8,273.1,405.2,276z"/>
			<path class="st15" d="M420.7,276.2c0,0,0.7,3.8,6.4,4.2l0.2-1c0,0-4.3-1.3-4.4-6h-2.2V276.2z"/>
		</g>
		<path class="st14" d="M422.8,292.1l-15.6,7.8c0,0-0.1,5.9,0,5.8c0.1-0.1,18.7-10.7,18.6-10.8C425.8,294.8,422.8,292.1,422.8,292.1
			z"/>
		<path class="st14" d="M407.7,309.1l19.7-12.6c0,0,0.8,1.1,0.8,1.1c0,0-19.9,13.9-19.9,13.9L407.7,309.1z"/>
	</g>
</g>
<g id="Character_1">
	<g>
		<g>
			<g>
				<g>
					<g>
						<g>
							<path class="st40" d="M268.1,424.2l0,19.6l9.9,0.7l3.5-18.4C276.9,423.1,272.5,422.3,268.1,424.2z"/>
						</g>
					</g>
				</g>
			</g>
			<g>
				<g>
					<g>
						<g>
							<g>
								<path class="st15" d="M268.4,441.7c-1,2.6-1,13.2-1,13.2l20.9,0c1.2-3.8-0.7-6.4-3.1-6.8c-1-0.1-2.3-1.2-3.2-2.2
									c0-0.1-1.3-6-2.1-6.3c0,0-0.5-0.6-1,0c-0.5,0.6-0.9,2.6-0.9,2.6C274.8,438.2,271.6,438.8,268.4,441.7z"/>
							</g>
						</g>
					</g>
				</g>
			</g>
			<g>
				<g>
					<g>
						<g>
							<path class="st2" d="M268.2,444.8c2.4-0.9,4.9-0.5,7,0.9c0.4,0.3,0.7-0.3,0.3-0.6c-2.2-1.5-5-1.9-7.5-1
								C267.6,444.3,267.7,445,268.2,444.8L268.2,444.8z"/>
						</g>
					</g>
				</g>
			</g>
			<g>
				<g>
					<g>
						<path class="st2" d="M288.2,453.4C288.2,453.4,288.2,453.4,288.2,453.4l-20.6,0c-0.2,0-0.3-0.2-0.3-0.3c0-0.2,0.2-0.3,0.3-0.3
							c0,0,0,0,0,0l20.6,0c0.2,0,0.3,0.2,0.3,0.3C288.6,453.2,288.4,453.4,288.2,453.4z"/>
					</g>
				</g>
			</g>
		</g>
		<g>
			<g>
				<g>
					<g>
						<g>
							<path class="st40" d="M294.8,424.2l0,19.6l9.9,0.7l3.5-18.4C303.6,423.1,299.2,422.3,294.8,424.2z"/>
						</g>
					</g>
				</g>
			</g>
			<g>
				<g>
					<g>
						<g>
							<g>
								<path class="st15" d="M295.2,441.7c-1,2.6-1,13.2-1,13.2l20.9,0c1.2-3.8-0.7-6.4-3.1-6.8c-1-0.1-2.3-1.2-3.2-2.2
									c0-0.1-1.3-6-2.1-6.3c0,0-0.5-0.6-1,0c-0.5,0.6-0.9,2.6-0.9,2.6C301.5,438.2,298.3,438.8,295.2,441.7z"/>
							</g>
						</g>
					</g>
				</g>
			</g>
			<g>
				<g>
					<g>
						<g>
							<path class="st2" d="M294.9,444.8c2.4-0.9,4.9-0.5,7,0.9c0.4,0.3,0.7-0.3,0.3-0.6c-2.2-1.5-5-1.9-7.5-1
								C294.3,444.3,294.5,445,294.9,444.8L294.9,444.8z"/>
						</g>
					</g>
				</g>
			</g>
			<g>
				<g>
					<g>
						<path class="st2" d="M315,453.4C315,453.4,315,453.4,315,453.4l-20.6,0c-0.2,0-0.3-0.2-0.3-0.3c0-0.2,0.2-0.3,0.3-0.3
							c0,0,0,0,0,0l20.6,0c0.2,0,0.3,0.2,0.3,0.3C315.3,453.2,315.2,453.4,315,453.4z"/>
					</g>
				</g>
			</g>
		</g>
		<path class="st15" d="M306.3,244.3c0,0,13.4,21.3,18.4,54c5.4,35.1,0,86.2,0,86.2H275V318l-5-65.4L306.3,244.3z"/>
		<g>
			<path class="st40" d="M264.9,214.6c-0.5,0-3.9,21.6-3.7,22.2c0.8,2.3,25.8-2.9,25.8-2.9l1.6,6.7c0,0-10.9,5.3-22.6,7.2
				c-12.1,2-16.6-3.4-16.7-11.6c-0.1-7.5,3.1-25.8,3.1-25.8L264.9,214.6z"/>
		</g>
		<g>
			<g>
				<path class="st15" d="M306.8,252.5l-38.7-2.2c-5.7,7.4-7.9,21.8-7.5,34c0.4,7.9,1.8,18.1,3.2,27.9c2.1,14.1,4.5,27.3,4.7,31.2
					c0,0,0.4,0,0.4,0c0,5-3.1,21.7-3.1,29.1c0,25.4-0.3,64.2-0.3,64.2h18.8c0,0,8-87.2,8.2-92.4c0-0.6,0-1.2,0.1-1.8l0.5-9.2
					c0.6-8.4,1.3-17.8,1.6-27.3l0.9-15.4c11.2-4,16.3-17.6,18.2-20.5C310.4,259.3,309.6,257.2,306.8,252.5z"/>
				<g>
					<g>
						<g>
							<g>
								<g>
									<path class="st15" d="M312.5,265.4c0,0,5.7,19.7,10.6,66.7c0.9,9-2.1,22.5-3.6,30.9l-10.3,73.7l-18.1-0.1
										c1.6-33.9,4.3-73,7.7-87.5l-21.6-73.6L312.5,265.4z"/>
								</g>
							</g>
						</g>
					</g>
				</g>
			</g>
			<g class="st41">
				<path class="st2" d="M306.8,252.5l-38.7-2.2c-5.7,7.4-7.9,21.8-7.5,34c0.4,7.9,1.8,18.1,3.2,27.9c2.1,14.1,4.5,27.3,4.7,31.2
					c0,0,0.4,0,0.4,0c0,5-3.1,21.7-3.1,29.1c0,25.4-0.3,64.2-0.3,64.2h18.8c0,0,8-87.2,8.2-92.4c0-0.6,0-1.2,0.1-1.8l0.5-9.2
					c0.6-8.4,1.3-17.8,1.6-27.3l0.9-15.4c11.2-4,16.3-17.6,18.2-20.5C310.4,259.3,309.6,257.2,306.8,252.5z"/>
				<g>
					<g>
						<g>
							<g>
								<g>
									<path class="st2" d="M312.5,265.4c0,0,5.7,19.7,10.6,66.7c0.9,9-2.1,22.5-3.6,30.9l-10.3,73.7l-18.1-0.1
										c1.6-33.9,4.3-73,7.7-87.5l-21.6-73.6L312.5,265.4z"/>
								</g>
							</g>
						</g>
					</g>
				</g>
			</g>
			<path class="st16" d="M298.8,349.2l-7.5-25.5c-2.4-10.6-5.3-16.5-7.8-20.3c0-0.4-0.1-0.8-0.1-0.8c-0.1,0-0.8-0.6-1.8-1.7
				c-0.9-1.1-1.7-1.9-2.3-2.7l0.1,0.4c-4.2-4.5-10.3-11.3-10.3-11.3s4.6,10.4,10.9,15.3c0.5,0.4,0.9,0.6,1.2,0.9L298.8,349.2z"/>
		</g>
		<g>
			<g>
				<path class="st10" d="M309.7,199.4c4.7,9,6.6,16.9,6.6,16.9l-19,3.6c0,0-4.2-19.6-2.1-24.5c1.9-4.5,3.3-2.4,10.1,0.1
					C307.2,196.2,308.7,197.6,309.7,199.4z"/>
				<path class="st10" d="M260.3,218.2l-5.8-19.6c3.6-5.4,21.7-9.6,21.7-9.6l11.9,0.6c0,0,4.6,1,8.5,2.3c5.2,1.7,8,3.1,9.3,6
					c0,0,0.5,10.7-0.8,23.9c-0.4,3.6,0.5,18.5,1.5,24.8l5.8,15.2c-33.7,14-49-0.5-49-0.5c1-3,3.3-10.8,3.7-13.7
					c-0.3-3.7-0.5-5.3-2.1-11.8C264.7,234.6,260.8,219.5,260.3,218.2z"/>
				<g>
					<path class="st10" d="M256,197c-4.2,2.3-6.2,17.3-6.2,17.3l14.7,6.4c0,0,5.7-12.8,3.3-18.5C265.7,197.3,261.4,194.1,256,197z"
						/>
				</g>
			</g>
		</g>
		<g>
			<g>
				<g>
					<path class="st10" d="M347,205.4c0.6-2.1-0.3-4.3-1.7-5.9c-1.5-1.5-3.5-2.4-5.6-3c-1.4-0.4-2.9-0.6-4.2-0.3
						c-1.4,0.3-2.7,1.3-3.1,2.7c-0.3,1.1-0.1,2.3-0.6,3.3c-0.3,0.6-0.8,1-1.3,1.5c-0.5,0.4-1,0.9-1.2,1.5c-0.2,0.6,0,1.4,0.6,1.7
						l-0.4-0.2c-0.2,3-2.6,5.4-3.2,8.3c-0.6,2.7,0.4,5.6,2.3,7.7c1.9,2,4.6,3.2,7.4,3.5c2.5,0.3,5.2,0,7.4-1.3
						c1.2-0.7,2.2-1.7,2.5-3.1c0.3-1.5-0.6-3-1.3-4.4c-0.9-1.7-1.5-3.7-1-5.6C344,209.4,346.3,207.8,347,205.4z"/>
				</g>
				<g class="st19">
					<path class="st2" d="M347,205.4c0.6-2.1-0.3-4.3-1.7-5.9c-1.5-1.5-3.5-2.4-5.6-3c-1.4-0.4-2.9-0.6-4.2-0.3
						c-1.4,0.3-2.7,1.3-3.1,2.7c-0.3,1.1-0.1,2.3-0.6,3.3c-0.3,0.6-0.8,1-1.3,1.5c-0.5,0.4-1,0.9-1.2,1.5c-0.2,0.6,0,1.4,0.6,1.7
						l-0.4-0.2c-0.2,3-2.6,5.4-3.2,8.3c-0.6,2.7,0.4,5.6,2.3,7.7c1.9,2,4.6,3.2,7.4,3.5c2.5,0.3,5.2,0,7.4-1.3
						c1.2-0.7,2.2-1.7,2.5-3.1c0.3-1.5-0.6-3-1.3-4.4c-0.9-1.7-1.5-3.7-1-5.6C344,209.4,346.3,207.8,347,205.4z"/>
				</g>
			</g>
			<g>
				<g>
					<path class="st40" d="M314.6,216.5L320,230l9.3-12.2l7.3,3c0,0-5.7,9.6-10.2,19.3c-4.8,10.3-11.3,8.5-15.2,1.3
						c-3.6-6.6-9.6-22.4-9.6-22.4L314.6,216.5z"/>
				</g>
			</g>
		</g>
		<g>
			<g>
				<path class="st40" d="M275.5,172.8c1,5.2,3.4,15.6-0.2,19.1c0,0,1.4,5.2,11.1,5.2c10.6,0,5-5.2,5-5.2c-5.8-1.4-5.7-5.7-4.7-9.7
					L275.5,172.8z"/>
				<path class="st15" d="M297.3,163.3c-0.1,0-0.3-0.1-0.3-0.1c-0.2-0.2-0.2-0.5,0-0.7c1.1-1,2.6-1.5,4.1-1.3
					c0.2,0.1,0.4,0.3,0.3,0.6c0,0,0,0,0,0c-0.1,0.2-0.3,0.4-0.5,0.4c0,0,0,0,0,0c-1.2-0.2-2.4,0.2-3.2,1
					C297.5,163.2,297.4,163.3,297.3,163.3z"/>
				<path class="st42" d="M298.7,169.3c0.3,1.9,0.8,3.8,1.6,5.6c-0.9,0.4-2,0.3-2.9-0.1L298.7,169.3z"/>
				<path class="st15" d="M298.3,167.8c-0.2,0.8,0.1,1.5,0.6,1.6c0.5,0.1,1.1-0.4,1.2-1.2c0.1-0.8-0.1-1.5-0.6-1.6
					C299,166.5,298.5,167,298.3,167.8z"/>
				<path class="st15" d="M299.3,166.6l2-0.1C301.3,166.5,300,167.7,299.3,166.6z"/>
				<path class="st40" d="M272.8,158.9c-1.6,9.7-2.5,13.8,1.2,19.8c5.6,9.1,17.8,9,22.3,0c4-8.1,6-22.6-2.5-28.6
					c-6-4.3-14.3-3-18.6,3C274,154.9,273.1,156.8,272.8,158.9z"/>
				<path class="st15" d="M284.7,145.6c8.1-3.3,16.5-1.1,17.4,7.3c0.8,8.4-8.7,16.4-8.7,16.4L284.7,145.6z"/>
				<path class="st40" d="M288.6,167.4c-0.2,1.9,0.3,3.8,1.5,5.3c1.6,2,3.8,0.9,4.6-1.3c0.7-2,0.8-5.5-1.4-6.7
					c-1.6-0.8-3.5-0.2-4.3,1.4C288.8,166.5,288.7,167,288.6,167.4z"/>
				<path class="st43" d="M292.5,167.2c-0.4-0.1-0.8,0.2-1,0.5c-0.2,0.3-0.3,0.7-0.3,1.1c0,1.2,0.5,2.4,1.5,3.2"/>
			</g>
			<g>
				<path class="st19" d="M257.1,201.7c0.1,0.2,2.3,13.6,7,14.8c2.2,0.6,19.9,0.3,19.9,0.3l1.6-2.5l2.7,2.5h11.3l-6.4-11.2l0.7-18.3
					L257.1,201.7z"/>
				<path class="st15" d="M291.7,169c4-7.6,1.7-21.3-7.1-23.8c-7.9-2.3-20.4,0.1-20,14.2c0.5,14.2-2.8,12.7-6.4,21.8
					c-3.8,9.5-2.7,22.1,3.7,32.4h17.5l3.2-4.6l3.8,4.6h15.2c-7.5-10.4-3-14.5-2.1-23.9C300.5,180.2,288.3,175.6,291.7,169z"/>
				<path class="st10" d="M273.7,147.8c-0.5-1.1-1.4-2.1-2.6-2.1c-0.6,0-1.2,0.2-1.8,0.4l-0.1,0.7c-0.5,1.2-1.4,2.1-2.1,3.1
					c-0.7,1-1.2,2.4-0.6,3.5c0.5,0.8,1.4,1.3,2.3,1.4c1.7,0.2,3.5-0.7,4.4-2.1C274.3,151.3,274.4,149.4,273.7,147.8z"/>
				<path class="st15" d="M271.7,153.1c0.6-1.3,1-4.2,0.7-5.2c-0.4-1.6-1.5-2.9-2.8-3.9c-0.6-0.5-1.4-1-2.1-1.2
					c-1.3-0.4-2.7-0.3-4,0c-1.5,0.3-3,0.9-4.1,2c-1.5,1.5-2,3.9-1.3,5.8c0.7,2,2.7,3.4,4.7,3.6c-1.3,0.4-2.6,1-3.7,1.8
					c-0.1,0.1-0.2,0.2-0.2,0.3c0,0.1,0.1,0.2,0.1,0.3c0.7,0.7,1.7,1,2.7,0.9c1-0.1,1.9-0.4,2.9-0.7c-0.3,1-0.6,1.9-0.9,2.9
					c-0.1,0.3-0.2,0.6-0.1,0.9c0.2,0.7,1.1,0.8,1.8,0.7c2.1-0.4,3.8-2,4.8-3.8C270.9,156,271.4,154.5,271.7,153.1z"/>
			</g>
		</g>
		<g>
			<path class="st15" d="M311.1,255.9c-1.8-4.6-5.9-24-5.9-24l-18.5,17.5c-3.4,1.7-7.7,1.7-11.5-0.3c-5.8-3-9.5-10.6-9.5-10.6
				s0.6,4.5,0.6,8.7c-0.1,4.2-2.1,10.5-2.1,10.5s6.5-1.9,18-3c11.5-1,33.2,13.7,33.2,13.7S312.9,260.5,311.1,255.9z"/>
			<g>
				<g>
					<path class="st15" d="M282.5,251.4c-0.7-6.2-3.4-12.2-7.6-16.8c-0.8-0.9-2-1.8-3-0.7c-0.9,1-0.8,2.5-0.6,3.7
						c0.6,3.1,2.7,6,4.7,8.4c2.3,2.8,5,5.3,8,7.3c0.8,0.5,1.6-0.8,0.8-1.3c-4.3-2.9-8-6.8-10.6-11.4c-0.7-1.2-1.3-2.6-1.5-4
						c0-0.4-0.1-1.7,0.4-1.6c0.4,0,1.1,1,1.3,1.3c1.7,1.9,3,4.1,4.1,6.5c1.3,2.7,2.1,5.6,2.4,8.6
						C281.1,252.3,282.6,252.3,282.5,251.4L282.5,251.4z"/>
				</g>
			</g>
			<g>
				<g>
					<path class="st15" d="M282.2,251.9c2.4-1.2,3.7-3.7,4.6-6.1c1.2-3.1,2-6.3,2.4-9.6c0.1-1.1,0.2-2.4-0.8-3.1
						c-1-0.7-2.2-0.3-3,0.5c-2.1,1.9-3.2,5-3.7,7.7c-0.7,3.8-0.3,7.6,0.1,11.4c0.1,1,1.6,1,1.5,0c-0.4-3.5-0.8-7-0.2-10.5
						c0.2-1.5,0.6-3,1.3-4.4c0.3-0.7,0.7-1.3,1.1-1.9c0.3-0.5,1-1.6,1.7-1.6c1.4-0.2,0.5,3.4,0.3,4.2c-0.3,1.6-0.7,3.2-1.2,4.8
						c-0.9,2.7-2,6-4.7,7.4C280.6,251.1,281.4,252.4,282.2,251.9L282.2,251.9z"/>
				</g>
			</g>
			<g>
				<g>
					<path class="st15" d="M279.2,253.9c0.2,0.1,0.5,0.2,0.7,0.2c-0.2-0.2-0.4-0.5-0.6-0.7c-1.1,8.5-1.6,17-1.3,25.5
						c0,1,1.5,1,1.5,0c-0.2-8.5,0.2-17,1.3-25.5c0-0.3-0.3-0.6-0.6-0.7c-0.2-0.1-0.5-0.2-0.7-0.2
						C278.7,252.2,278.3,253.6,279.2,253.9L279.2,253.9z"/>
				</g>
			</g>
			<g>
				<g>
					<path class="st15" d="M279.9,253.9c2.1,8.1,5.1,16,8.9,23.4c0.4,0.9,1.7,0.1,1.3-0.8c-3.8-7.3-6.7-15-8.8-23
						C281.1,252.6,279.7,253,279.9,253.9L279.9,253.9z"/>
				</g>
			</g>
		</g>
		<path class="st10" d="M264.3,310"/>
		<g>
			<g>
				<g>
					<g>
						<g>
							<g>
								<g>
									<path class="st40" d="M329.4,218c0,0-1.6-2.5-1.1-4.8c0.5-2.4,0.3-4.4,0.8-6.2c0.5-1.7,1.5,0.5,1.8,1.8
										c0.3,1.3,0.7,2.8,1.6,2.4c0.9-0.4,6.2-7.3,7.6-7.7c1.4-0.4,0.9,1,0.9,1s1.3-1.6,2.1-1.3c0.2,0.1,0.5,0.6,0.1,1.5
										c-1.1,1.9-3.6,5.8-3.6,5.8c0.1-0.2,3.6-4.8,4.2-5.4c0.8-0.8,1.6-0.8,2-0.3c0.6,0.7-3.4,6.5-3.4,6.8c0,0,2.2-3.4,3.4-3.3
										c1.2,0.1-0.1,2.3-1.6,4.1c-1.4,1.6-3.7,5.1-5.3,6.6c-1.9,1.8-3.6,2.6-6,1.7C330.6,219.6,329.4,218,329.4,218z"/>
								</g>
							</g>
						</g>
					</g>
				</g>
			</g>
		</g>
	</g>
</g>
</svg>
